# xmcd CD database file
#
# Track frame offsets:
#	150
#	14849
#	23510
#	43140
#	59399
#	70714
#	86005
#	98462
#	109186
#	122441
#	142012
#	154371
#	165273
#	177855
#
# Disc length: 2497 seconds
#
# Revision: 0
# Processed by: cddbd v1.5.2PL0 Copyright (c) Steve Scherf et al.
# Submitted via: CDex 1.70beta2
#
DISCID=b109bf0e
DTITLE=Varié - Sélection Country
DYEAR=1900
DGENRE=Country
TTITLE0=André Breton - Un jour on sera séparé
TTITLE1=Simone Aubé - Revien moi mon amour
TTITLE2=Léo Benoît - J'ai brulé tes lettres
TTITLE3=Richard Huet - Combien de fois je t'ai blessé
TTITLE4=Gaétan Richard - Penses-tu encore à moi
TTITLE5=Aldéi Duguay - Une femme infidèle
TTITLE6=Marie King - J'ai le coeur qui pleure
TTITLE7=Marcel Martel - Plus d'importance maintenant
TTITLE8=Albert Babin - Soudainemant seul
TTITLE9=Gérald Poudrier - Ne divorce pas mon enfant
TTITLE10=Paul Brunel - Je suis perdu sans toi
TTITLE11=Gilles Morin - Revien moi donc ma chérie
TTITLE12=Raymond Rouleau - Demande d'un pardon
TTITLE13=Jos Robichaud - Pourquoi m'a tu quitté
EXTD=
EXTT0=
EXTT1=
EXTT2=
EXTT3=
EXTT4=
EXTT5=
EXTT6=
EXTT7=
EXTT8=
EXTT9=
EXTT10=
EXTT11=
EXTT12=
EXTT13=
PLAYORDER=
